<?xml version="1.0" standalone="no"?>
<!DOCTYPE svg PUBLIC "-//W3C//DTD SVG 20010904//EN"
 "http://www.w3.org/TR/2001/REC-SVG-20010904/DTD/svg10.dtd">
<svg version="1.0" xmlns="http://www.w3.org/2000/svg"
 width="758.000000pt" height="505.000000pt" viewBox="0 0 758.000000 505.000000"
 preserveAspectRatio="xMidYMid meet">

<g transform="translate(0.000000,505.000000) scale(0.100000,-0.100000)"
fill="#000000" stroke="none">
<path d="M3640 4623 c-133 -12 -293 -40 -397 -69 -403 -110 -765 -338 -1032
-649 -265 -308 -421 -638 -492 -1040 -32 -181 -33 -491 -1 -675 105 -612 453
-1133 974 -1456 528 -327 1177 -402 1770 -204 1194 398 1774 1759 1234 2895
-105 222 -231 399 -411 581 -350 353 -803 567 -1300 614 -103 9 -265 11 -345
3z m-805 -2176 c182 -115 347 -220 367 -234 l38 -25 -23 -32 c-68 -96 -174
-166 -253 -166 -136 0 -272 123 -379 344 -66 137 -126 349 -92 329 7 -3 161
-101 342 -216z m2236 103 c-65 -259 -236 -501 -391 -556 -52 -19 -129 -16
-178 6 -47 21 -143 113 -167 160 l-15 29 122 73 c463 273 643 377 646 373 2
-2 -6 -40 -17 -85z"/>
</g>
</svg>
